# xmcd CD database file
#
# Track frame offsets:
#	150
#	24530
#	41865
#
# Disc length: 801 seconds
#
# Revision: 0
# Processed by: cddbd v1.5.1PL2 Copyright (c) Steve Scherf et al.
# Submitted via: CDex 1.51
#
DISCID=20031f03
DTITLE=mimei - 月夜と眼鏡
DYEAR=1900
DGENRE=イージー リスニング (一般)
TTITLE0=月夜と眼鏡
TTITLE1=Sleeping Sleeping Murder
TTITLE2=砂金
EXTD=
EXTT0=
EXTT1=
EXTT2=
PLAYORDER=
